HIERARCHY
ROOT root
{
	OFFSET 0.000000 0.000000 0.000000
	CHANNELS 6 Xposition Yposition Zposition Zrotation Yrotation Xrotation
	JOINT lhip
	{
		OFFSET 0.058581 -0.082280 -0.017664
		CHANNELS 3 Zrotation Yrotation Xrotation
		JOINT lknee
		{
			OFFSET 0.043451 -0.386469 0.008037
			CHANNELS 3 Zrotation Yrotation Xrotation
			JOINT lankle
			{
				OFFSET -0.014790 -0.426874 -0.037428
				CHANNELS 3 Zrotation Yrotation Xrotation
				JOINT ltoe
				{
					OFFSET 0.041054 -0.060286 0.122042
					CHANNELS 3 Zrotation Yrotation Xrotation
					End Site
					{
						OFFSET 0.000000 0.000000 0.000000
					}
				}
			}
		}
	}
	JOINT rhip
	{
		OFFSET -0.060310 -0.090513 -0.013543
		CHANNELS 3 Zrotation Yrotation Xrotation
		JOINT rknee
		{
			OFFSET -0.043257 -0.383688 -0.004843
			CHANNELS 3 Zrotation Yrotation Xrotation
			JOINT rankle
			{
				OFFSET 0.019056 -0.420046 -0.034562
				CHANNELS 3 Zrotation Yrotation Xrotation
				JOINT rtoe
				{
					OFFSET -0.034840 -0.062106 0.130323
					CHANNELS 3 Zrotation Yrotation Xrotation
					End Site
					{
						OFFSET 0.000000 0.000000 0.000000
					}
				}
			}
		}
	}
	JOINT lowerback
	{
		OFFSET 0.004439 0.124404 -0.038385
		CHANNELS 3 Zrotation Yrotation Xrotation
		JOINT upperback
		{
			OFFSET 0.004488 0.137956 0.026820
			CHANNELS 3 Zrotation Yrotation Xrotation
			JOINT chest
			{
				OFFSET -0.002265 0.056032 0.002855
				CHANNELS 3 Zrotation Yrotation Xrotation
				JOINT lowerneck
				{
					OFFSET -0.013390 0.211636 -0.033468
					CHANNELS 3 Zrotation Yrotation Xrotation
					JOINT upperneck
					{
						OFFSET 0.010113 0.088937 0.050410
						CHANNELS 3 Zrotation Yrotation Xrotation
						End Site
						{
							OFFSET 0.000000 0.000000 0.000000
						}
					}
				}
				JOINT lclavicle
				{
					OFFSET 0.071702 0.114000 -0.018898
					CHANNELS 3 Zrotation Yrotation Xrotation
					JOINT lshoulder
					{
						OFFSET 0.122921 0.045205 -0.019046
						CHANNELS 3 Zrotation Yrotation Xrotation
						JOINT lelbow
						{
							OFFSET 0.255332 -0.015649 -0.022946
							CHANNELS 3 Zrotation Yrotation Xrotation
							JOINT lwrist
							{
								OFFSET 0.265709 0.012698 -0.007375
								CHANNELS 3 Zrotation Yrotation Xrotation
								End Site
								{
									OFFSET 0.000000 0.000000 0.000000
								}
							}
						}
					}
				}
				JOINT rclavicle
				{
					OFFSET -0.082954 0.112472 -0.023707
					CHANNELS 3 Zrotation Yrotation Xrotation
					JOINT rshoulder
					{
						OFFSET -0.113228 0.046853 -0.008472
						CHANNELS 3 Zrotation Yrotation Xrotation
						JOINT relbow
						{
							OFFSET -0.260127 -0.014369 -0.031269
							CHANNELS 3 Zrotation Yrotation Xrotation
							JOINT rwrist
							{
								OFFSET -0.269108 0.006794 -0.006027
								CHANNELS 3 Zrotation Yrotation Xrotation
								End Site
								{
									OFFSET 0.000000 0.000000 0.000000
								}
							}
						}
					}
				}
			}
		}
	}
}
MOTION
Frames: 17
Frame Time: 0.033333
-1.767824 0.245242 0.955568 89.234716 2.412967 89.992557 -0.129311 3.699083 8.348043 -8.133145 -10.994625 74.596582 -8.084911 4.443865 30.179215 0.000000 -0.000000 0.000000 8.194787 5.970920 -27.566432 -2.103849 -7.484699 31.015532 -6.456797 -7.801719 -6.186077 0.000000 -0.000000 0.000000 2.300455 -8.671447 21.610994 1.172192 2.573057 -7.988315 0.946333 -3.248850 2.343665 -2.235272 -0.162293 -15.538710 2.250150 6.937717 1.725018 -23.539986 7.977982 -0.180571 -56.981877 -5.828539 15.745898 -167.066381 -74.620613 -173.522922 7.419466 -10.901163 -32.680689 19.835992 -6.342176 -0.309102 59.612526 -15.045700 17.447638 -150.275990 84.291857 -133.940478 -3.375929 16.120160 -22.085581 
-1.665350 0.244814 0.934654 88.853709 1.876674 90.533173 1.252173 0.076812 -2.335201 -6.811556 -3.943112 88.040602 -3.666768 7.101526 28.500012 0.000000 -0.000000 0.000000 9.352330 9.421725 -25.896664 -3.651053 -5.599971 40.744851 -8.788778 -14.597203 -15.761801 0.000000 -0.000000 0.000000 0.837141 -6.352960 21.486693 3.111265 2.313596 -7.483048 0.662043 -3.351670 2.889004 -1.125246 1.393201 -19.399872 0.128657 5.135431 6.085376 -27.003544 9.172308 -0.039147 -55.800703 -4.821633 15.624451 -166.154421 -82.325504 -176.377527 7.343897 -10.517222 -30.030954 26.492002 -4.530944 -1.721415 53.477206 -7.998762 21.056018 -139.565037 83.336801 -124.276520 -2.715198 15.646911 -25.657218 
-1.562908 0.247178 0.930223 89.229625 0.308794 91.516836 1.988158 -2.960576 -15.085724 -6.549298 1.235075 96.235880 -0.115581 7.176679 23.848244 0.000000 -0.000000 0.000000 9.029213 8.831918 -19.319248 -2.831121 -3.725350 41.303583 -8.719572 -17.996128 -22.130238 0.000000 -0.000000 0.000000 -0.704946 -3.941858 21.001073 3.983530 1.417788 -8.227849 0.528366 -3.246072 3.386458 -0.092009 1.693160 -20.599126 -1.684322 4.072815 7.997929 -28.088750 12.145603 0.205925 -55.407231 -2.708743 14.263180 -144.824917 -84.609445 164.516271 6.383559 -9.897082 -28.951249 29.122432 -4.242660 -3.186791 52.246473 -0.951121 22.940588 -150.869951 80.606047 -134.453840 -3.096464 15.265958 -29.777357 
-1.426380 0.250373 0.945237 86.838523 -1.436979 92.506614 4.088683 -2.849544 -27.536174 -2.701264 6.732057 94.959946 -3.010151 4.298194 13.855116 0.000000 -0.000000 0.000000 8.237498 3.206314 -6.527036 -3.536378 0.647729 33.726704 -6.570574 -13.882560 -22.541868 0.000000 -0.000000 0.000000 -0.478929 1.975664 18.114241 2.855684 0.711011 -7.041531 -0.211254 -1.693921 2.352611 -0.063602 -0.273697 -17.318981 -0.759932 1.510420 6.061469 -26.438648 12.945298 1.575724 -54.141611 3.505919 11.545825 -143.674547 -78.516151 163.413302 3.386110 -11.858029 -30.510169 26.714027 -3.046707 -2.717744 57.679267 2.926258 21.195679 -160.704389 72.030495 -144.568422 -2.218103 16.155663 -33.263417 
-1.340698 0.256020 0.965115 85.748090 -2.864884 92.098158 3.777317 -2.977778 -31.476228 -2.461453 9.654693 87.986101 -3.800381 2.059631 11.207712 0.000000 -0.000000 0.000000 4.895848 -0.224535 1.179593 -3.416725 2.597211 29.046904 -1.491276 -8.764869 -16.516757 0.000000 -0.000000 0.000000 -0.534672 4.845545 18.737438 1.781632 0.991485 -7.503800 -0.688199 0.060588 2.241164 -0.004050 -1.650920 -17.386204 -0.037129 -0.451864 5.696171 -25.606565 14.198627 0.366723 -53.289191 6.173586 11.770066 -143.681646 -75.470240 162.338774 1.786882 -11.594127 -30.755728 25.890681 -2.907700 -4.112569 58.716939 2.700777 21.370888 -161.445383 65.586640 -146.333970 -0.870206 15.044798 -31.537462 
-1.219442 0.260755 0.993134 84.553863 -4.278601 92.812575 3.712816 -4.059700 -34.584667 -2.189123 13.651797 73.305519 -5.617245 0.391929 7.329041 0.000000 -0.000000 0.000000 -0.528936 -2.799407 8.727731 -3.232211 2.863129 22.943517 7.717273 -1.518659 0.616992 0.000000 -0.000000 0.000000 -1.400029 8.794770 15.412606 1.616045 1.023153 -5.356699 -0.788639 1.298742 1.180947 -0.554661 -2.948431 -15.705535 0.365955 -1.693420 3.427779 -24.357573 16.854663 0.384600 -53.937599 8.726623 11.539183 -146.005361 -74.652974 163.845330 2.567640 -12.943493 -30.323180 25.112148 -4.727709 -4.920115 57.175348 3.901615 21.748847 -165.201200 61.010081 -150.506321 -1.362519 16.898955 -29.671077 
-1.099485 0.265366 1.019018 86.378488 -5.435146 93.762383 2.904663 -7.674059 -35.946057 -2.559566 15.687479 54.897133 -6.496508 1.512083 9.197786 0.000000 -0.000000 0.000000 -5.657030 -5.240098 14.450835 -2.350172 -0.046541 16.969621 16.890012 -0.139081 25.621897 0.000000 -0.000000 0.000000 -1.949858 11.010709 11.107524 1.755091 -0.677834 -4.149628 -0.785500 1.921033 1.696520 -1.442745 -3.985629 -13.079711 1.013506 -2.713270 0.642746 -21.709502 18.976433 2.158182 -56.639709 9.851123 10.561890 -149.005406 -75.220003 165.617859 3.371637 -13.153110 -30.521142 24.023414 -6.671852 -3.933376 54.892420 5.880947 21.390839 -170.047545 59.300913 -153.894263 -9.618346 19.123920 -26.398976 
-0.980071 0.267526 1.035904 87.053870 -5.182103 94.367185 1.436639 -8.318473 -34.193233 -3.347189 13.033591 34.862086 -6.229992 3.825827 9.294954 0.000000 -0.000000 0.000000 -5.270082 -5.118117 17.431467 -3.479278 5.790225 18.033935 10.366741 -4.663773 32.387369 0.000000 -0.000000 0.000000 -1.476234 11.763666 11.257769 0.717202 0.297428 -7.970511 -0.360872 1.486932 1.962588 -2.491816 -6.859036 -12.126091 2.439944 -0.860593 1.683894 -18.672390 21.614578 3.375725 -56.155425 12.556574 8.988606 -145.696163 -72.745883 163.041208 2.885879 -13.481350 -32.294857 20.837536 -8.544972 -4.115868 56.308063 4.803522 21.191396 -171.416289 58.899483 -157.519176 -0.790243 18.256488 -28.858973 
-0.863549 0.271811 1.041333 89.610833 -4.621767 92.332323 -1.642687 -8.550799 -28.778266 -3.022321 7.490300 18.248795 -6.625956 5.850400 9.818591 0.000000 -0.000000 0.000000 -2.187105 -3.995026 19.409340 -5.890279 8.092853 28.550612 7.271780 -7.205196 25.138024 0.000000 -0.000000 0.000000 -0.247026 9.381573 13.534492 0.287689 0.955165 -8.798628 -0.305368 2.039602 2.187054 -2.297206 -7.119005 -14.463342 2.103947 -0.881269 3.116525 -18.684867 21.566793 2.229459 -54.509840 14.497986 8.737498 -147.946861 -71.145016 165.958551 1.215816 -14.757172 -32.317412 19.869950 -6.965813 -4.921598 55.880760 1.308263 21.375325 -170.103260 58.048186 -156.720873 3.568395 19.027810 -28.973458 
-0.718771 0.276232 1.030708 91.474043 -4.871186 90.059844 -5.528326 -8.427976 -23.286324 -1.584799 3.567714 9.145853 -5.337069 6.614175 11.258114 0.000000 -0.000000 0.000000 -0.130362 -2.324938 18.186892 -8.479214 7.968286 46.658441 4.241097 -10.426038 23.419262 0.000000 -0.000000 0.000000 -0.545156 6.937529 15.371944 -0.171898 1.399297 -8.486098 -0.113658 2.436830 2.546654 -2.063905 -7.829789 -15.258690 2.236848 0.029258 0.790085 -20.264975 20.027438 1.501343 -52.711663 14.453474 8.864560 -152.468981 -70.935575 169.939028 0.876805 -15.074621 -31.796763 20.120915 -5.672871 -5.062427 55.699129 -1.311811 21.874562 -170.380699 61.090046 -157.487622 2.090398 18.926756 -25.704842 
-0.608726 0.276861 1.007419 93.482110 -5.465702 89.089401 -5.785406 -12.559623 -22.560125 -3.730123 1.774500 14.234698 -2.686972 5.449582 9.330107 0.000000 -0.000000 0.000000 -0.366947 -1.513125 12.762838 -8.298201 6.559186 63.985448 2.267934 -12.882859 24.495040 0.000000 -0.000000 0.000000 -1.624390 7.177638 13.987665 0.699186 0.571128 -4.557528 -0.661915 1.634308 2.600105 -1.608872 -7.232035 -16.290261 2.157945 -0.558083 -0.757428 -21.551905 16.316783 1.440591 -53.605047 11.009854 10.012324 -160.799814 -73.294709 177.762079 1.520026 -14.222085 -29.686519 20.870635 -4.319439 -5.556626 56.909914 -3.343725 23.031354 -164.533161 65.358980 -151.357673 1.946800 17.909336 -24.958531 
-0.497123 0.280455 0.977430 95.319038 -5.832139 88.586684 -6.681273 -14.453682 -22.236464 -8.355520 -2.690031 26.794334 8.849495 7.098654 -4.532103 0.000000 -0.000000 0.000000 -2.442060 -1.503010 6.066641 -4.746079 5.021880 79.183464 -0.719735 -15.939729 22.936338 0.000000 -0.000000 0.000000 -2.031837 5.496335 16.216822 0.300791 0.669067 -8.630588 -1.304348 0.514939 4.574622 -0.893073 -8.865764 -17.182755 2.368749 2.091164 1.523223 -24.442309 15.259237 0.274156 -51.148889 7.343018 11.019120 -165.099965 -73.802085 -178.443931 4.152467 -11.980829 -29.139259 22.138635 -5.290501 -6.550426 58.166417 -6.612363 24.385339 -158.280961 71.204715 -146.596406 5.362018 16.039126 -24.738992 
-0.392874 0.279989 0.947667 94.624772 -5.188451 88.194570 -8.286727 -12.501086 -18.991729 -9.135009 -2.988132 35.637453 14.848153 12.602603 -17.570382 0.000000 -0.000000 0.000000 -3.333567 0.577474 -4.866247 -1.825723 2.392854 92.393865 -1.405049 -16.854839 19.770917 0.000000 -0.000000 0.000000 -3.289240 2.767602 17.825043 0.125559 2.565398 -9.333755 -1.354246 0.313543 6.192775 1.328169 -6.705642 -20.618902 1.528493 2.450747 3.783605 -28.594755 13.423872 -2.579946 -49.697996 1.273114 11.949657 -178.846955 -74.198309 -165.345921 4.285892 -11.221140 -28.629029 25.888802 -5.518931 -6.519187 57.360425 -6.299860 25.187289 -137.378322 77.415173 -127.633602 3.589027 15.041884 -24.645659 
-0.287708 0.278639 0.936763 95.637717 -3.826876 86.198825 -9.934397 -7.111193 -9.428290 -7.629034 -8.594245 36.925116 15.754227 14.161995 -24.971263 0.000000 -0.000000 0.000000 -3.321538 -0.538479 -15.121880 -1.024824 0.311711 98.056822 0.700703 -17.606596 15.927649 0.000000 -0.000000 0.000000 -3.413531 -0.825452 22.719419 -0.482531 3.808965 -10.893502 -0.841676 -0.205115 6.473321 1.575582 -6.572287 -23.409811 2.104143 3.108006 4.856851 -30.267511 11.583067 -5.139302 -51.941084 -5.438244 12.366666 167.511512 -73.607257 -152.559702 7.278648 -9.279963 -26.962836 27.643824 -5.929314 -7.759303 57.737339 -10.877128 24.728319 -118.307893 78.252613 -110.798009 5.777292 14.275820 -17.443658 
-0.178683 0.279619 0.941092 98.152977 -1.586723 86.649758 -7.670190 -2.833134 -0.667642 -7.662958 -15.137918 34.398129 12.150057 13.707746 -25.576225 0.000000 -0.000000 0.000000 -3.163358 -1.915051 -24.696103 -2.245712 -3.871889 94.286377 3.475965 -13.190130 14.312345 0.000000 -0.000000 0.000000 -1.790182 -4.563313 22.969733 -0.092301 2.926322 -10.760344 -0.272702 -1.640496 5.877092 0.060593 -5.150994 -22.572150 2.343576 4.703505 2.894405 -30.104821 9.494680 -5.421910 -54.420255 -9.393037 12.310554 158.672296 -69.053895 -144.540028 9.463082 -8.686364 -28.925429 27.166477 -7.772752 -7.134822 56.023308 -14.774242 22.418710 -137.635308 80.094814 -129.552628 4.981791 16.470131 -19.730507 
-0.066677 0.279922 0.961364 99.340945 0.476024 87.305271 -3.289504 1.439967 8.099734 -6.545877 -20.018157 29.122855 5.066086 9.877429 -18.348076 0.000000 -0.000000 0.000000 -2.229401 -2.166440 -30.881475 -3.024124 -7.880838 82.918358 6.394358 -9.399632 10.647830 0.000000 -0.000000 0.000000 -0.747269 -8.148411 23.083939 0.541578 2.229678 -10.674127 0.767185 -3.058194 4.596907 -0.837481 -3.066993 -21.271762 2.273407 6.287192 1.817446 -28.703047 9.416940 -5.284783 -54.562004 -11.072673 12.180039 159.027723 -65.022635 -145.748923 10.221829 -10.140696 -33.498842 25.263205 -10.006425 -6.136211 53.874996 -17.830275 20.921332 -167.387986 79.728250 -158.595559 5.120106 17.929556 -22.081428 
0.049563 0.279076 0.987000 98.235493 1.863670 89.441576 0.545087 2.662561 14.479054 -5.590237 -20.964619 22.973100 -3.003050 6.632827 -2.064036 0.000000 -0.000000 0.000000 -1.418953 0.810293 -34.701748 -2.140052 -11.779603 65.944701 6.425348 -7.745341 8.958234 0.000000 -0.000000 0.000000 -0.122281 -10.432224 18.962899 1.565283 2.361253 -8.337598 1.131904 -3.112561 2.862193 -1.044709 0.342325 -17.752405 1.810728 5.823044 -0.112272 -26.904617 10.661501 -3.710085 -53.530704 -12.517516 12.515229 160.019700 -63.241580 -147.055540 8.443770 -11.529899 -32.616797 23.619554 -12.339990 -3.957977 52.288138 -19.177482 19.697849 -179.998670 79.193500 -169.777735 3.307951 17.080774 -25.018204 
